<svg width="20" height="20" viewBox="0 0 20 20" fill="none" xmlns="http://www.w3.org/2000/svg">
<path fill-rule="evenodd" clip-rule="evenodd" d="M4.11 1.65C3.71 1.27 3.17 1.04 2.6 1.04C2.03 1.04 1.49 1.27 1.09 1.68L0.41 2.38C-0.56 3.37 -0.23 5.11 0.97 7.08C1.99 8.78 3.53 10.63 5.44 12.52C7.35 14.41 9.23 15.93 10.95 16.94C12.96 18.12 14.73 18.44 15.71 17.47L16.37 16.8C16.77 16.4 17 15.86 17 15.29C17 14.72 16.77 14.18 16.37 13.78L14.32 11.77C13.91 11.37 13.37 11.14 12.79 11.14C12.21 11.14 11.67 11.37 11.27 11.77L10.76 12.28C10.19 12.85 9.29 12.93 8.73 12.38L7.3 10.97C6.73 10.42 6.67 9.52 7.22 8.94L7.77 8.36C8.56 7.53 8.59 6.25 7.84 5.46L5.89 3.45L4.11 1.65ZM2.6 0C3.5 0 4.36 0.36 5 0.98L6.79 2.79L8.73 4.79C9.96 6.07 9.93 8.11 8.65 9.44L8.1 10.02C7.93 10.2 7.96 10.5 8.17 10.7L9.6 12.11C9.8 12.31 10.1 12.34 10.27 12.17L10.78 11.66C11.43 11.01 12.29 10.65 13.21 10.65C14.12 10.65 14.99 11.01 15.63 11.66L17.67 13.66C18.32 14.31 18.68 15.18 18.68 16.09C18.68 17 18.32 17.87 17.67 18.51L17.01 19.18C15.41 20.79 13.04 20.39 10.42 18.87C8.56 17.79 6.57 16.18 4.57 14.19C2.58 12.2 0.95 10.23 -0.13 8.38C-1.61 5.8 -1.97 3.5 0.28 1.27L0.96 0.57C1.6 -0.01 2.08 0 2.6 0Z" fill="url(#phone_grad)"/>
<defs>
<linearGradient id="phone_grad" x1="0" y1="10" x2="20" y2="10" gradientUnits="userSpaceOnUse">
<stop stop-color="#FFD58A"/>
<stop offset="1" stop-color="#FFA92C"/>
</linearGradient>
</defs>
</svg>
