<svg width="32" height="32" viewBox="0 0 32 32" fill="none" xmlns="http://www.w3.org/2000/svg">
<path d="M15.7832 2.40552C15.926 2.37383 16.074 2.37383 16.2168 2.40552L26.7393 4.74438C26.8131 4.76087 26.8794 4.80161 26.9268 4.8606C26.9742 4.91974 27 4.99376 27 5.06958V18.385C26.9999 19.5372 26.7156 20.6719 26.1719 21.6877C25.6281 22.7037 24.8416 23.5701 23.8828 24.2092L16.5547 29.095C16.2188 29.3189 15.7812 29.3189 15.4453 29.095L8.11719 24.2092C7.15863 23.5702 6.37288 22.7043 5.8291 21.6887C5.35332 20.8 5.07581 19.8204 5.01367 18.8176L5 18.386V5.06958L5.00488 5.01294C5.01441 4.95758 5.03771 4.90489 5.07324 4.8606C5.12062 4.8016 5.1869 4.76087 5.26074 4.74438L15.7832 2.40552Z" stroke="#FFA92C" stroke-width="2"/>
</svg>
