<svg width="32" height="32" viewBox="0 0 32 32" fill="none" xmlns="http://www.w3.org/2000/svg">
<path d="M11 17H21M11 21H16.7143" stroke="#FFA92C" stroke-width="2" stroke-linecap="round"/>
<path d="M6 6.67059C6 5.38588 6 4.74353 6.25077 4.25259C6.47208 3.82054 6.8254 3.46931 7.26 3.24929C7.75231 3 8.39846 3 9.69231 3H16.7785C17.3431 3 17.6246 3 17.8908 3.06271C18.1287 3.1198 18.3508 3.21157 18.5569 3.338C18.7908 3.48024 18.9892 3.67906 19.3877 4.07518L24.9185 9.57188C25.3185 9.96953 25.5185 10.1684 25.66 10.3978C25.7872 10.6058 25.8795 10.827 25.9369 11.0615C26 11.3261 26 11.606 26 12.1673V25.3294C26 26.6141 26 27.2565 25.7492 27.7474C25.5279 28.1795 25.1746 28.5307 24.74 28.7507C24.2477 29 23.6015 29 22.3077 29H9.69231C8.4 29 7.75385 29 7.26 28.7507C6.8254 28.5307 6.47208 28.1795 6.25077 27.7474C6 27.258 6 26.6156 6 25.3294V6.67059Z" stroke="#FFA92C" stroke-width="2"/>
<path d="M17 3V8.4C17 9.66 17 10.29 17.246 10.7715C17.4614 11.195 17.8053 11.5395 18.2285 11.7555C18.7085 12 19.3385 12 20.6 12H26" stroke="#FFA92C" stroke-width="2"/>
</svg>
