<svg width="32" height="32" viewBox="0 0 32 32" fill="none" xmlns="http://www.w3.org/2000/svg">
<path d="M5.33203 6.33325C5.33203 5.78097 5.77975 5.33325 6.33203 5.33325H25.6654C26.2176 5.33325 26.6654 5.78097 26.6654 6.33325V8.22925C26.6652 8.93644 26.3842 9.6146 25.884 10.1146L20.2916 15.707C20.1041 15.8946 19.9987 16.1489 19.9987 16.4141V24.6125C19.9987 25.0429 19.7233 25.4251 19.3149 25.5612L13.3149 27.5612C12.6674 27.777 11.9987 27.2951 11.9987 26.6125V17.0532C11.9987 16.8044 11.906 16.5646 11.7386 16.3805L6.02536 10.0959C5.57929 9.60515 5.3321 8.96578 5.33203 8.30259V6.33325Z" stroke="#FFA92C" stroke-width="2" stroke-linecap="round" stroke-linejoin="round"/>
</svg>
