<svg width="32" height="32" viewBox="0 0 32 32" fill="none" xmlns="http://www.w3.org/2000/svg">
<path d="M16.0083 14.6667H16.019M10.6816 14.6667H10.6936" stroke="#FFA92C" stroke-width="2" stroke-linecap="round" stroke-linejoin="round"/>
<path d="M16.0007 4C14.0274 4 12.1274 4.04 10.3421 4.11733C7.08872 4.25733 5.46205 4.32667 4.17405 5.624C2.88739 6.92 2.83139 8.50267 2.72072 11.6667C2.65039 13.666 2.65039 15.6673 2.72072 17.6667C2.83139 20.8307 2.88739 22.4133 4.17405 23.7093C5.46072 25.0067 7.08872 25.076 10.3421 25.216L10.6674 25.2293V28.36C10.6675 28.5461 10.7209 28.7283 10.8214 28.8849C10.9218 29.0416 11.0651 29.1662 11.2341 29.2439C11.4032 29.3217 11.5911 29.3493 11.7754 29.3235C11.9597 29.2978 12.1327 29.2198 12.2741 29.0987L15.1807 26.6067C15.9101 25.98 16.2754 25.668 16.7101 25.5027C17.1447 25.3373 17.6381 25.328 18.6261 25.3093C19.6669 25.2889 20.6781 25.2578 21.6594 25.216C24.9127 25.076 26.5394 25.0067 27.8274 23.7093C29.1141 22.4133 29.1701 20.8307 29.2807 17.6667C29.3092 16.9076 29.3261 16.1298 29.3314 15.3333" stroke="#FFA92C" stroke-width="2" stroke-linecap="round" stroke-linejoin="round"/>
<path d="M28.1453 3.46408C27.164 2.96275 25.964 2.66675 24.6667 2.66675C23.3693 2.66675 22.1693 2.96275 21.188 3.46408C20.708 3.71075 20.4667 3.83341 20.2333 4.22141C20 4.60941 20 4.98275 20 5.73208V7.59342C20 10.6241 22.356 12.3094 23.72 13.0321C24.1 13.2321 24.2907 13.3334 24.6667 13.3334C25.0427 13.3334 25.2333 13.2334 25.6133 13.0321C26.9787 12.3094 29.3333 10.6241 29.3333 7.59208V5.73342C29.3333 4.98408 29.3333 4.60941 29.1 4.22275C28.8667 3.83608 28.6267 3.71075 28.1453 3.46408Z" stroke="#FFA92C" stroke-width="2" stroke-linecap="round" stroke-linejoin="round"/>
</svg>
