<svg width="32" height="32" viewBox="0 0 32 32" fill="none" xmlns="http://www.w3.org/2000/svg">
<path d="M27.1334 11.8972L26.6454 11.6252L26.4948 11.5399C26.1313 11.3217 25.825 11.0201 25.6014 10.6599C25.5774 10.6239 25.5561 10.5852 25.5134 10.5106C25.226 10.0491 25.0864 9.51088 25.1134 8.9679L25.1214 8.40124C25.1374 7.49457 25.1454 7.03857 25.0174 6.63057C24.9042 6.26756 24.7146 5.93296 24.4614 5.64924C24.1761 5.32924 23.7801 5.0999 22.9868 4.6439L22.3281 4.2639C21.5388 3.80924 21.1428 3.58124 20.7228 3.49457C20.3517 3.41778 19.9685 3.42097 19.5988 3.5039C19.1814 3.59724 18.7908 3.8319 18.0108 4.29857L18.0068 4.30124L17.5348 4.58257C17.4601 4.6279 17.4214 4.64924 17.3841 4.67057C17.0134 4.87724 16.6001 4.99057 16.1748 5.0039C16.1321 5.00657 16.0881 5.00657 16.0014 5.00657L15.8281 5.00524C15.4026 4.99168 14.9866 4.87647 14.6148 4.66924C14.5774 4.64924 14.5414 4.62657 14.4668 4.58124L13.9908 4.2959C13.2054 3.8239 12.8121 3.58924 12.3921 3.49457C12.021 3.4115 11.6364 3.40877 11.2641 3.48657C10.8428 3.57457 10.4481 3.8039 9.65744 4.26257L9.65344 4.2639L9.00277 4.64124L8.99611 4.64657C8.21211 5.0999 7.81877 5.32924 7.53611 5.6479C7.28421 5.9311 7.09557 6.26473 6.98277 6.62657C6.85611 7.0359 6.86277 7.4919 6.87877 8.4039L6.88811 8.96924C6.88811 9.0559 6.89211 9.09857 6.89077 9.1399C6.88387 9.62433 6.74512 10.0977 6.48944 10.5092C6.44544 10.5839 6.42544 10.6212 6.40277 10.6559C6.17796 11.0188 5.86931 11.3224 5.50277 11.5412L5.35344 11.6252L4.87211 11.8919C4.06944 12.3359 3.66811 12.5586 3.37744 12.8759C3.11901 13.1557 2.92352 13.4876 2.80411 13.8492C2.67077 14.2586 2.67077 14.7159 2.67211 15.6332L2.67477 16.3839C2.67611 17.2946 2.67877 17.7492 2.81344 18.1559C2.93235 18.5153 3.12643 18.8453 3.38277 19.1239C3.67344 19.4386 4.07077 19.6599 4.86677 20.1026L5.34411 20.3679C5.42544 20.4132 5.46677 20.4346 5.50544 20.4586C5.92327 20.709 6.26451 21.0692 6.49211 21.4999L6.58144 21.6599C6.80666 22.0851 6.91262 22.5634 6.88811 23.0439L6.87877 23.5866C6.86277 24.5012 6.85611 24.9599 6.98411 25.3692C7.09744 25.7319 7.28677 26.0666 7.54011 26.3506C7.82544 26.6706 8.22277 26.8986 9.01477 27.3559L9.67344 27.7359C10.4641 28.1906 10.8588 28.4186 11.2788 28.5052C11.6498 28.582 12.033 28.5788 12.4028 28.4959C12.8214 28.4026 13.2121 28.1679 13.9948 27.6986L14.4668 27.4159L14.6174 27.3279C14.9881 27.1226 15.4014 27.0079 15.8268 26.9946L16.0001 26.9932H16.1734C16.5974 27.0066 17.0134 27.1226 17.3868 27.3292L17.5094 27.4026L18.0108 27.7039C18.7974 28.1759 19.1894 28.4106 19.6094 28.5039C19.9804 28.5879 20.365 28.5915 20.7374 28.5146C21.1574 28.4266 21.5548 28.1959 22.3454 27.7372L23.0054 27.3546C23.7894 26.8986 24.1828 26.6706 24.4654 26.3519C24.7188 26.0679 24.9054 25.7346 25.0188 25.3732C25.1454 24.9666 25.1388 24.5146 25.1228 23.6159L25.1121 23.0292V22.8599C25.1184 22.3752 25.2567 21.9013 25.5121 21.4892L25.5988 21.3426C25.8236 20.9797 26.1322 20.6761 26.4988 20.4572L26.6454 20.3759L26.6481 20.3746L27.1294 20.1079C27.9321 19.6626 28.3334 19.4412 28.6254 19.1239C28.8841 18.8439 29.0788 18.5106 29.1974 18.1506C29.3308 17.7439 29.3308 17.2879 29.3281 16.3812L29.3254 15.6159C29.3241 14.7052 29.3228 14.2492 29.1881 13.8426C29.0686 13.4835 28.8741 13.154 28.6174 12.8759C28.3281 12.5612 27.9308 12.3399 27.1361 11.8986L27.1334 11.8972Z" stroke="#FFA92C" stroke-width="2" stroke-linecap="round" stroke-linejoin="round"/>
<path d="M10.666 15.9998C10.666 17.4143 11.2279 18.7709 12.2281 19.7711C13.2283 20.7713 14.5849 21.3332 15.9993 21.3332C17.4138 21.3332 18.7704 20.7713 19.7706 19.7711C20.7708 18.7709 21.3327 17.4143 21.3327 15.9998C21.3327 14.5853 20.7708 13.2288 19.7706 12.2286C18.7704 11.2284 17.4138 10.6665 15.9993 10.6665C14.5849 10.6665 13.2283 11.2284 12.2281 12.2286C11.2279 13.2288 10.666 14.5853 10.666 15.9998Z" stroke="#FFA92C" stroke-width="2" stroke-linecap="round" stroke-linejoin="round"/>
</svg>
