<svg width="32" height="32" viewBox="0 0 32 32" fill="none" xmlns="http://www.w3.org/2000/svg">
<path d="M11.9999 19C12.8868 18.9998 13.7487 19.2944 14.45 19.8374C15.1513 20.3805 15.6522 21.1412 15.8739 22H26.9999C27.2498 21.9995 27.4908 22.0927 27.6755 22.261C27.8601 22.4294 27.9751 22.6608 27.9976 22.9096C28.0202 23.1585 27.9488 23.4068 27.7974 23.6057C27.6461 23.8045 27.4258 23.9395 27.1799 23.984L26.9999 24L15.8739 24.002C15.6529 24.8615 15.1523 25.6231 14.451 26.167C13.7497 26.7108 12.8874 27.0059 11.9999 27.0059C11.1124 27.0059 10.2501 26.7108 9.54879 26.167C8.84745 25.6231 8.34689 24.8615 8.12589 24.002L4.99989 24C4.75 24.0005 4.50899 23.9073 4.32432 23.739C4.13966 23.5706 4.02472 23.3392 4.00214 23.0904C3.97956 22.8415 4.05098 22.5932 4.20233 22.3943C4.35368 22.1955 4.574 22.0605 4.81989 22.016L4.99989 22H8.12589C8.34763 21.1412 8.84852 20.3805 9.54979 19.8374C10.2511 19.2944 11.1129 18.9998 11.9999 19ZM11.9999 21C11.4695 21 10.9608 21.2107 10.5857 21.5858C10.2106 21.9609 9.99989 22.4696 9.99989 23C9.99989 23.5304 10.2106 24.0391 10.5857 24.4142C10.9608 24.7893 11.4695 25 11.9999 25C12.5303 25 13.039 24.7893 13.4141 24.4142C13.7892 24.0391 13.9999 23.5304 13.9999 23C13.9999 22.4696 13.7892 21.9609 13.4141 21.5858C13.039 21.2107 12.5303 21 11.9999 21ZM19.9999 5C20.8868 4.99977 21.7487 5.29435 22.45 5.83741C23.1513 6.38047 23.6522 7.14121 23.8739 8H26.9999C27.2498 7.99954 27.4908 8.09266 27.6755 8.26102C27.8601 8.42938 27.9751 8.66077 27.9976 8.90964C28.0202 9.15851 27.9488 9.40682 27.7974 9.60566C27.6461 9.80451 27.4258 9.93948 27.1799 9.984L26.9999 10L23.8739 10.002C23.6529 10.8615 23.1523 11.6231 22.451 12.167C21.7497 12.7108 20.8874 13.0059 19.9999 13.0059C19.1124 13.0059 18.2501 12.7108 17.5488 12.167C16.8475 11.6231 16.3469 10.8615 16.1259 10.002L4.99989 10C4.75 10.0005 4.50899 9.90734 4.32432 9.73898C4.13966 9.57062 4.02472 9.33923 4.00214 9.09036C3.97956 8.84149 4.05098 8.59318 4.20233 8.39434C4.35368 8.19549 4.574 8.06052 4.81989 8.016L4.99989 8H16.1259C16.3476 7.14121 16.8485 6.38047 17.5498 5.83741C18.2511 5.29435 19.1129 4.99977 19.9999 5ZM19.9999 7C19.4695 7 18.9607 7.21071 18.5857 7.58579C18.2106 7.96086 17.9999 8.46957 17.9999 9C17.9999 9.53043 18.2106 10.0391 18.5857 10.4142C18.9607 10.7893 19.4695 11 19.9999 11C20.5303 11 21.039 10.7893 21.4141 10.4142C21.7892 10.0391 21.9999 9.53043 21.9999 9C21.9999 8.46957 21.7892 7.96086 21.4141 7.58579C21.039 7.21071 20.5303 7 19.9999 7Z" fill="#FFA92C"/>
</svg>
